<svg width="223" height="55" viewBox="0 0 223 55" fill="none" xmlns="http://www.w3.org/2000/svg">
<path d="M8.5 6.28125C12.9062 6.28125 16.125 10.25 16.1562 16.5312C16.125 22.9062 12.9062 26.875 8.5 26.875C4.03125 26.875 0.78125 22.9062 0.8125 16.5312C0.78125 10.25 4.03125 6.28125 8.5 6.28125ZM8.5 10.3438C6.5 10.3438 5.15625 12.4375 5.1875 16.5312C5.15625 20.6875 6.5 22.7812 8.5 22.7812C10.5312 22.7812 11.8125 20.6875 11.8438 16.5312C11.8125 12.4375 10.5312 10.3438 8.5 10.3438ZM23.5 4.3125V14.9375H27.5625V18.6562H23.5V33H19V4.3125H23.5ZM39.5625 8.03125C39.5312 11.7812 41.2188 15.3125 45.9375 16.75L43.5625 20.25C40.5469 19.2344 38.5469 17.375 37.375 14.9375C36.0938 17.7812 33.8438 20.0156 30.4375 21.125L28.0625 17.5312C33.1562 15.9688 34.9688 12.125 35 8.25V5.78125H39.5625V8.03125ZM52.6875 4.3125V21.0625H48.2188V12.9688H43.1562V9.28125H48.2188V4.3125H52.6875ZM42.7812 21.7812C48.9688 21.7812 52.75 23.8438 52.7812 27.4062C52.75 30.9688 48.9688 33.0312 42.7812 33C36.6562 33.0312 32.875 30.9688 32.875 27.4062C32.875 23.8438 36.6562 21.7812 42.7812 21.7812ZM42.7812 25.25C39.1875 25.25 37.3438 25.9062 37.3438 27.4062C37.3438 28.8438 39.1875 29.5312 42.7812 29.5312C46.4375 29.5312 48.2812 28.8438 48.3125 27.4062C48.2812 25.9062 46.4375 25.25 42.7812 25.25ZM80.1562 4.3125V21.5625H75.6562V4.3125H80.1562ZM80.1562 22.75V33H75.6562V26.3125H60.3438V22.75H80.1562ZM73 5.875V9.46875H67.5312C67.7031 12.5781 69.5938 15.8281 74.1875 17.2188L71.875 20.6875C68.7344 19.7344 66.5781 17.7656 65.3125 15.3125C63.9844 17.9844 61.7344 20.125 58.4062 21.1875L56.0938 17.7188C60.7656 16.2344 62.75 12.7812 62.9375 9.46875H57.2812V5.875H73ZM91.75 5.5C95.3594 5.5 98.2656 7.5625 99.125 10.5625H103.531V4.3125H108V19.75H103.531V14.0938H99.1562C98.3125 17.1875 95.375 19.2812 91.75 19.2812C87.3125 19.2812 84.0312 16.375 84.0625 12.3438C84.0312 8.40625 87.3125 5.5 91.75 5.5ZM91.75 9.21875C89.7188 9.21875 88.3125 10.375 88.3125 12.3438C88.3125 14.3438 89.7188 15.5 91.75 15.5C93.6875 15.5 95.0938 14.3438 95.0938 12.3438C95.0938 10.375 93.6875 9.21875 91.75 9.21875ZM93.0938 20.9375V23.4062H103.531V20.9375H108V32.6875H88.6875V20.9375H93.0938ZM93.0938 29.0625H103.531V26.8438H93.0938V29.0625ZM135.656 4.34375V25.25H131.188V15.2188H126.875V11.5938H131.188V4.34375H135.656ZM136.312 28.9375V32.5312H116.438V23.4375H120.938V28.9375H136.312ZM122.469 9.84375C122.469 13.0625 124.25 16.5938 128.906 18.0938L126.719 21.6562C123.578 20.6562 121.469 18.6719 120.219 16.2188C118.969 18.9375 116.766 21.125 113.438 22.1875L111.125 18.5625C116.031 17.0938 117.875 13.3438 117.875 9.8125V9.75H112.375V6.15625H127.938V9.75H122.469V9.84375ZM165.219 18.3125V21.875H154.719V26.5312H150.281V21.875H139V18.3125H165.219ZM161.875 5.53125V16.2812H142.219V5.53125H161.875ZM146.625 9V12.8125H157.469V9H146.625ZM162.344 28.9375V32.5312H141.969V24.1562H146.469V28.9375H162.344ZM183.656 6.71875V10.25H166.656V6.71875H172.906V4.1875H177.406V6.71875H183.656ZM175.156 10.9688C179.344 10.9688 182.281 13.1562 182.281 16.2812C182.281 19.4688 179.344 21.625 175.156 21.625C171 21.625 167.969 19.4688 168 16.2812C167.969 13.1562 171 10.9688 175.156 10.9688ZM175.156 14.3438C173.5 14.3438 172.375 14.9688 172.375 16.2812C172.375 17.625 173.5 18.2188 175.156 18.2188C176.844 18.2188 178 17.625 178 16.2812C178 14.9688 176.844 14.3438 175.156 14.3438ZM189.531 4.3125V11.5938H193.25V15.25H189.531V22.3125H185.031V4.3125H189.531ZM189.531 23.4062V33H185.031V27H170.062V23.4062H189.531ZM218.344 6.65625V9.34375C218.344 12.7812 218.344 16.8125 217.281 22.7188L212.844 22.3438C213.734 17.2188 213.812 13.4219 213.812 10.2188H196.875V6.65625H218.344ZM220.5 26.0312V29.6562H194.344V26.0312H199.625V17.125H204.094V26.0312H206.781V17.125H211.219V26.0312H220.5Z" fill="#333"/>
<path d="M2.95 46.592H11.088V47.476H2.95V46.592ZM1.65 50.609H12.31V51.493H1.65V50.609ZM6.421 47.125H7.5V50.882H6.421V47.125ZM2.95 42.25H4.042V46.969H2.95V42.25ZM13.609 47.047H24.243V47.918H13.609V47.047ZM18.393 45.162H19.446V47.411H18.393V45.162ZM14.948 44.824H22.995V45.695H14.948V44.824ZM14.948 41.795H22.917V42.653H16.014V45.344H14.948V41.795ZM18.913 48.763C20.1697 48.763 21.1533 48.9493 21.864 49.322C22.5747 49.686 22.93 50.206 22.93 50.882C22.93 51.558 22.5747 52.078 21.864 52.442C21.1533 52.8147 20.1697 53.001 18.913 53.001C17.6563 53.001 16.6683 52.8147 15.949 52.442C15.2383 52.078 14.883 51.558 14.883 50.882C14.883 50.206 15.2383 49.686 15.949 49.322C16.6683 48.9493 17.6563 48.763 18.913 48.763ZM18.9 49.608C18.2933 49.608 17.769 49.66 17.327 49.764C16.8937 49.8593 16.56 50.0023 16.326 50.193C16.092 50.375 15.975 50.6047 15.975 50.882C15.975 51.1507 16.092 51.3803 16.326 51.571C16.56 51.7617 16.8937 51.9047 17.327 52C17.769 52.104 18.2933 52.156 18.9 52.156C19.524 52.156 20.0527 52.104 20.486 52C20.928 51.9047 21.266 51.7617 21.5 51.571C21.734 51.3803 21.851 51.1507 21.851 50.882C21.851 50.6047 21.734 50.375 21.5 50.193C21.266 50.0023 20.928 49.8593 20.486 49.764C20.0527 49.66 19.524 49.608 18.9 49.608ZM25.555 48.217H36.215V49.088H25.555V48.217ZM30.326 48.62H31.392V53.014H30.326V48.62ZM26.907 41.73H27.973V43.342H33.784V41.73H34.863V46.813H26.907V41.73ZM27.973 44.213V45.929H33.784V44.213H27.973ZM40.634 42.939H41.518V44.837C41.518 45.461 41.4313 46.0763 41.258 46.683C41.0846 47.281 40.842 47.8487 40.53 48.386C40.2266 48.9147 39.8713 49.3827 39.464 49.79C39.0566 50.1973 38.619 50.518 38.151 50.752L37.527 49.894C37.9516 49.686 38.3503 49.4043 38.723 49.049C39.1043 48.6937 39.438 48.2863 39.724 47.827C40.01 47.3677 40.231 46.8823 40.387 46.371C40.5516 45.8597 40.634 45.3483 40.634 44.837V42.939ZM40.855 42.939H41.726V44.837C41.726 45.331 41.804 45.825 41.96 46.319C42.1246 46.8043 42.35 47.2637 42.636 47.697C42.9306 48.1217 43.2643 48.4987 43.637 48.828C44.0183 49.1573 44.4256 49.4173 44.859 49.608L44.261 50.466C43.7843 50.2407 43.338 49.9373 42.922 49.556C42.506 49.1747 42.142 48.737 41.83 48.243C41.5266 47.7403 41.2883 47.203 41.115 46.631C40.9416 46.0503 40.855 45.4523 40.855 44.837V42.939ZM37.904 42.458H44.469V43.355H37.904V42.458ZM46.068 41.249H47.147V53.014H46.068V41.249ZM55.7649 44.304H58.4039V45.201H55.7649V44.304ZM58.0789 41.249H59.1579V48.256H58.0789V41.249ZM55.2839 48.62C56.0986 48.62 56.7963 48.7067 57.3769 48.88C57.9663 49.0533 58.4169 49.3047 58.7289 49.634C59.0409 49.9547 59.1969 50.349 59.1969 50.817C59.1969 51.5103 58.8459 52.0477 58.1439 52.429C57.4506 52.8103 56.4973 53.001 55.2839 53.001C54.0706 53.001 53.1129 52.8103 52.4109 52.429C51.7176 52.0477 51.3709 51.5103 51.3709 50.817C51.3709 50.349 51.5269 49.9547 51.8389 49.634C52.1596 49.3047 52.6103 49.0533 53.1909 48.88C53.7803 48.7067 54.4779 48.62 55.2839 48.62ZM55.2839 49.465C54.6946 49.465 54.1876 49.517 53.7629 49.621C53.3383 49.725 53.0089 49.8767 52.7749 50.076C52.5496 50.2753 52.4369 50.5223 52.4369 50.817C52.4369 51.0943 52.5496 51.3327 52.7749 51.532C53.0089 51.7313 53.3383 51.8873 53.7629 52C54.1876 52.104 54.6946 52.156 55.2839 52.156C55.8819 52.156 56.3889 52.104 56.8049 52C57.2296 51.8873 57.5546 51.7313 57.7799 51.532C58.0139 51.3327 58.1309 51.0943 58.1309 50.817C58.1309 50.5223 58.0139 50.2753 57.7799 50.076C57.5546 49.8767 57.2296 49.725 56.8049 49.621C56.3889 49.517 55.8819 49.465 55.2839 49.465ZM52.4759 42.445H53.3599V43.394C53.3599 44.1133 53.2213 44.7893 52.9439 45.422C52.6753 46.046 52.2939 46.5963 51.7999 47.073C51.3059 47.541 50.7339 47.9007 50.0839 48.152L49.5249 47.294C49.9669 47.138 50.3656 46.9257 50.7209 46.657C51.0849 46.3883 51.3969 46.0807 51.6569 45.734C51.9256 45.3873 52.1293 45.0147 52.2679 44.616C52.4066 44.2173 52.4759 43.81 52.4759 43.394V42.445ZM52.6839 42.445H53.5679V43.381C53.5679 43.8837 53.6849 44.3733 53.9189 44.85C54.1529 45.3267 54.4866 45.747 54.9199 46.111C55.3533 46.475 55.8516 46.761 56.4149 46.969L55.8689 47.827C55.2276 47.593 54.6686 47.255 54.1919 46.813C53.7153 46.3623 53.3426 45.8423 53.0739 45.253C52.8139 44.6637 52.6839 44.0397 52.6839 43.381V42.445ZM49.8629 42.107H56.1419V42.991H49.8629V42.107ZM65.9838 52H64.7836L68.2551 42.5455H69.437L72.9086 52H71.7083L68.883 44.0412H68.8091L65.9838 52ZM66.427 48.3068H71.2651V49.3224H66.427V48.3068ZM73.8863 46.839H84.5203V47.736H73.8863V46.839ZM75.2253 44.85H83.2723V45.734H75.2253V44.85ZM75.2253 41.717H83.1943V42.601H76.2913V45.266H75.2253V41.717ZM79.1903 48.75C80.447 48.75 81.4307 48.9363 82.1413 49.309C82.852 49.6817 83.2073 50.2017 83.2073 50.869C83.2073 51.545 82.852 52.065 82.1413 52.429C81.4307 52.8017 80.447 52.988 79.1903 52.988C77.9337 52.988 76.9457 52.8017 76.2263 52.429C75.5157 52.065 75.1603 51.545 75.1603 50.869C75.1603 50.2017 75.5157 49.6817 76.2263 49.309C76.9457 48.9363 77.9337 48.75 79.1903 48.75ZM79.1773 49.595C78.5707 49.595 78.0463 49.647 77.6043 49.751C77.171 49.8463 76.8373 49.9893 76.6033 50.18C76.3693 50.3707 76.2523 50.6003 76.2523 50.869C76.2523 51.1463 76.3693 51.3803 76.6033 51.571C76.8373 51.753 77.171 51.896 77.6043 52C78.0463 52.0953 78.5707 52.143 79.1773 52.143C79.8013 52.143 80.33 52.0953 80.7633 52C81.2053 51.896 81.5433 51.753 81.7773 51.571C82.0113 51.3803 82.1283 51.1463 82.1283 50.869C82.1283 50.6003 82.0113 50.3707 81.7773 50.18C81.5433 49.9893 81.2053 49.8463 80.7633 49.751C80.33 49.647 79.8013 49.595 79.1773 49.595ZM87.2233 47.983H88.2893V49.53H94.0483V47.983H95.1143V52.858H87.2233V47.983ZM88.2893 50.375V51.974H94.0483V50.375H88.2893ZM87.1973 41.782H94.7633V42.666H87.1973V41.782ZM85.8453 46.046H96.5053V46.943H85.8453V46.046ZM94.0613 41.782H95.1273V42.653C95.1273 43.1297 95.11 43.6583 95.0753 44.239C95.0406 44.8197 94.9323 45.5043 94.7503 46.293L93.6843 46.306C93.875 45.5087 93.9833 44.8197 94.0093 44.239C94.044 43.6583 94.0613 43.1297 94.0613 42.653V41.782ZM101.448 47.983H112.108V48.88H101.448V47.983ZM106.219 48.529H107.285V53.014H106.219V48.529ZM106.752 41.717C107.575 41.717 108.294 41.8253 108.91 42.042C109.525 42.25 110.006 42.549 110.353 42.939C110.699 43.3203 110.873 43.7753 110.873 44.304C110.873 44.824 110.699 45.279 110.353 45.669C110.006 46.059 109.525 46.358 108.91 46.566C108.294 46.774 107.575 46.878 106.752 46.878C105.946 46.878 105.231 46.774 104.607 46.566C103.991 46.358 103.51 46.059 103.164 45.669C102.817 45.279 102.644 44.824 102.644 44.304C102.644 43.7753 102.817 43.3203 103.164 42.939C103.51 42.549 103.991 42.25 104.607 42.042C105.231 41.8253 105.946 41.717 106.752 41.717ZM106.752 42.588C106.162 42.588 105.638 42.6573 105.179 42.796C104.728 42.9347 104.377 43.134 104.126 43.394C103.874 43.6453 103.749 43.9443 103.749 44.291C103.749 44.6463 103.874 44.954 104.126 45.214C104.377 45.4653 104.728 45.6603 105.179 45.799C105.638 45.9377 106.162 46.007 106.752 46.007C107.358 46.007 107.887 45.9377 108.338 45.799C108.788 45.6603 109.139 45.4653 109.391 45.214C109.642 44.954 109.768 44.6463 109.768 44.291C109.768 43.9443 109.642 43.6453 109.391 43.394C109.139 43.134 108.788 42.9347 108.338 42.796C107.887 42.6573 107.358 42.588 106.752 42.588ZM118.178 41.665H119.127V42.328C119.127 42.7787 119.04 43.2033 118.867 43.602C118.693 43.992 118.455 44.3517 118.152 44.681C117.857 45.0103 117.51 45.305 117.112 45.565C116.713 45.825 116.28 46.0417 115.812 46.215C115.352 46.3883 114.88 46.514 114.395 46.592L113.953 45.721C114.386 45.6603 114.806 45.5563 115.214 45.409C115.63 45.2617 116.015 45.084 116.371 44.876C116.726 44.6593 117.038 44.4167 117.307 44.148C117.584 43.8793 117.796 43.5933 117.944 43.29C118.1 42.978 118.178 42.6573 118.178 42.328V41.665ZM118.36 41.665H119.296V42.328C119.296 42.6573 119.374 42.9737 119.53 43.277C119.686 43.5803 119.898 43.8663 120.167 44.135C120.444 44.4037 120.76 44.6463 121.116 44.863C121.471 45.0797 121.852 45.2617 122.26 45.409C122.676 45.5563 123.096 45.6603 123.521 45.721L123.092 46.592C122.606 46.514 122.134 46.3883 121.675 46.215C121.215 46.033 120.782 45.812 120.375 45.552C119.976 45.292 119.625 44.9973 119.322 44.668C119.027 44.3387 118.793 43.979 118.62 43.589C118.446 43.1903 118.36 42.77 118.36 42.328V41.665ZM118.178 48.542H119.244V53.014H118.178V48.542ZM113.42 47.866H124.041V48.763H113.42V47.866ZM132.168 42.458H133.065V43.407C133.065 44.1263 132.926 44.7937 132.649 45.409C132.371 46.0243 131.981 46.5617 131.479 47.021C130.985 47.4803 130.408 47.827 129.75 48.061L129.191 47.229C129.78 47.0123 130.296 46.7133 130.738 46.332C131.188 45.942 131.539 45.4957 131.791 44.993C132.042 44.4903 132.168 43.9617 132.168 43.407V42.458ZM132.376 42.458H133.26V43.407C133.26 43.8057 133.329 44.187 133.468 44.551C133.615 44.915 133.823 45.2573 134.092 45.578C134.36 45.89 134.672 46.1717 135.028 46.423C135.392 46.6657 135.79 46.8563 136.224 46.995L135.678 47.84C135.028 47.6147 134.456 47.2853 133.962 46.852C133.468 46.4187 133.078 45.9073 132.792 45.318C132.514 44.7287 132.376 44.0917 132.376 43.407V42.458ZM137.589 41.249H138.668V48.36H137.589V41.249ZM130.816 48.984H138.668V53.014H137.589V49.868H130.816V48.984ZM129.477 42.068H135.912V42.952H129.477V42.068ZM146.896 44.057H150.055V44.941H146.896V44.057ZM144.205 41.795C144.785 41.795 145.301 41.912 145.752 42.146C146.211 42.3713 146.571 42.6877 146.831 43.095C147.091 43.5023 147.221 43.9747 147.221 44.512C147.221 45.0493 147.091 45.526 146.831 45.942C146.571 46.3493 146.211 46.67 145.752 46.904C145.301 47.1293 144.785 47.242 144.205 47.242C143.615 47.242 143.091 47.1293 142.632 46.904C142.181 46.67 141.826 46.3493 141.566 45.942C141.306 45.526 141.176 45.0493 141.176 44.512C141.176 43.9747 141.306 43.5023 141.566 43.095C141.826 42.6877 142.181 42.3713 142.632 42.146C143.091 41.912 143.615 41.795 144.205 41.795ZM144.205 42.705C143.815 42.705 143.468 42.783 143.165 42.939C142.87 43.0863 142.636 43.2987 142.463 43.576C142.289 43.8447 142.203 44.1567 142.203 44.512C142.203 44.8673 142.289 45.1837 142.463 45.461C142.636 45.7297 142.87 45.942 143.165 46.098C143.468 46.254 143.815 46.332 144.205 46.332C144.586 46.332 144.924 46.254 145.219 46.098C145.522 45.942 145.76 45.7297 145.934 45.461C146.107 45.1837 146.194 44.8673 146.194 44.512C146.194 44.1567 146.107 43.8447 145.934 43.576C145.76 43.2987 145.522 43.0863 145.219 42.939C144.924 42.783 144.586 42.705 144.205 42.705ZM149.587 41.249H150.666V47.567H149.587V41.249ZM143.139 48.152H144.205V49.621H149.587V48.152H150.666V52.858H143.139V48.152ZM144.205 50.479V51.974H149.587V50.479H144.205ZM152.953 47.97H163.574V48.841H152.953V47.97ZM157.802 48.607H158.881V50.596H157.802V48.607ZM154.292 51.883H162.417V52.754H154.292V51.883ZM154.292 49.816H155.371V52.351H154.292V49.816ZM153.512 42.341H162.963V43.186H153.512V42.341ZM158.257 43.693C159.461 43.693 160.393 43.8447 161.052 44.148C161.719 44.4513 162.053 44.8933 162.053 45.474C162.053 46.0547 161.719 46.501 161.052 46.813C160.393 47.1163 159.461 47.268 158.257 47.268C157.052 47.268 156.116 47.1163 155.449 46.813C154.79 46.501 154.461 46.0547 154.461 45.474C154.461 44.8933 154.79 44.4513 155.449 44.148C156.116 43.8447 157.052 43.693 158.257 43.693ZM158.257 44.473C157.39 44.473 156.723 44.5597 156.255 44.733C155.787 44.8977 155.553 45.1447 155.553 45.474C155.553 45.8033 155.787 46.0547 156.255 46.228C156.723 46.3927 157.39 46.475 158.257 46.475C159.123 46.475 159.791 46.3927 160.259 46.228C160.727 46.0547 160.961 45.8033 160.961 45.474C160.961 45.1447 160.727 44.8977 160.259 44.733C159.791 44.5597 159.123 44.473 158.257 44.473ZM157.724 41.119H158.803V42.809H157.724V41.119ZM165.393 47.45H166.238C166.983 47.45 167.629 47.4413 168.175 47.424C168.729 47.4067 169.236 47.3763 169.696 47.333C170.164 47.2897 170.64 47.229 171.126 47.151L171.243 48.035C170.74 48.1217 170.25 48.1867 169.774 48.23C169.297 48.2733 168.777 48.3037 168.214 48.321C167.65 48.3297 166.992 48.334 166.238 48.334H165.393V47.45ZM165.367 42.094H170.437V45.526H166.472V47.97H165.393V44.681H169.358V42.965H165.367V42.094ZM173.505 41.262H174.584V49.907H173.505V41.262ZM171.23 43.238H173.765V44.109H171.23V43.238ZM166.992 51.805H174.935V52.702H166.992V51.805ZM166.992 49.283H168.058V52.208H166.992V49.283ZM171.23 45.864H173.765V46.748H171.23V45.864ZM177.976 42.432H185.529V43.316H177.976V42.432ZM176.871 50.466H187.492V51.363H176.871V50.466ZM179.471 46.592H180.55V50.791H179.471V46.592ZM185.178 42.432H186.257V43.719C186.257 44.213 186.248 44.7243 186.231 45.253C186.222 45.7817 186.187 46.3493 186.127 46.956C186.075 47.554 185.979 48.217 185.841 48.945L184.775 48.828C184.974 47.7793 185.091 46.852 185.126 46.046C185.16 45.2313 185.178 44.4557 185.178 43.719V42.432ZM182.383 46.592H183.449V50.791H182.383V46.592ZM189.675 47.333H190.754V49.66H189.675V47.333ZM193.627 47.333H194.693V49.647H193.627V47.333ZM186.88 46.917H197.501V47.788H186.88V46.917ZM188.063 49.257H196.188V53.014H195.109V50.128H188.063V49.257ZM192.184 41.522C193.033 41.522 193.765 41.613 194.381 41.795C194.996 41.977 195.473 42.237 195.811 42.575C196.149 42.9043 196.318 43.303 196.318 43.771C196.318 44.2477 196.149 44.655 195.811 44.993C195.473 45.3223 194.996 45.578 194.381 45.76C193.765 45.942 193.033 46.033 192.184 46.033C191.343 46.033 190.611 45.942 189.987 45.76C189.371 45.578 188.895 45.3223 188.557 44.993C188.219 44.655 188.05 44.2477 188.05 43.771C188.05 43.303 188.219 42.9043 188.557 42.575C188.895 42.237 189.371 41.977 189.987 41.795C190.611 41.613 191.343 41.522 192.184 41.522ZM192.184 42.38C191.568 42.38 191.031 42.4363 190.572 42.549C190.121 42.653 189.77 42.809 189.519 43.017C189.276 43.225 189.155 43.4763 189.155 43.771C189.155 44.0657 189.276 44.317 189.519 44.525C189.77 44.733 190.121 44.8933 190.572 45.006C191.031 45.1187 191.568 45.175 192.184 45.175C192.808 45.175 193.345 45.1187 193.796 45.006C194.255 44.8933 194.606 44.733 194.849 44.525C195.091 44.317 195.213 44.0657 195.213 43.771C195.213 43.4763 195.091 43.225 194.849 43.017C194.606 42.809 194.255 42.653 193.796 42.549C193.345 42.4363 192.808 42.38 192.184 42.38ZM207.406 41.249H208.485V53.014H207.406V41.249ZM203.961 42.523H205.027C205.027 43.3723 204.923 44.1913 204.715 44.98C204.515 45.7687 204.199 46.5183 203.766 47.229C203.332 47.931 202.769 48.5853 202.076 49.192C201.382 49.7987 200.542 50.3403 199.554 50.817L198.982 49.946C200.117 49.4 201.053 48.763 201.79 48.035C202.526 47.307 203.072 46.4967 203.428 45.604C203.783 44.7027 203.961 43.732 203.961 42.692V42.523ZM199.528 42.523H204.416V43.394H199.528V42.523ZM211.435 42.159H216.635V43.056H211.435V42.159ZM213.203 44.785H214.269V47.723H213.203V44.785ZM216.206 42.159H217.259V42.783C217.259 43.173 217.246 43.6583 217.22 44.239C217.202 44.8197 217.116 45.4957 216.96 46.267L215.894 46.163C216.05 45.383 216.141 44.72 216.167 44.174C216.193 43.628 216.206 43.1643 216.206 42.783V42.159ZM218.858 41.249H219.95V50.102H218.858V41.249ZM219.456 45.071H221.627V45.981H219.456V45.071ZM212.514 51.87H220.327V52.754H212.514V51.87ZM212.514 49.296H213.593V52.13H212.514V49.296ZM210.837 48.23L210.72 47.346C211.413 47.346 212.18 47.3373 213.021 47.32C213.861 47.3027 214.715 47.268 215.582 47.216C216.448 47.1553 217.28 47.073 218.078 46.969L218.143 47.762C217.337 47.9007 216.5 48.0047 215.634 48.074C214.767 48.1433 213.922 48.1867 213.099 48.204C212.284 48.2213 211.53 48.23 210.837 48.23Z" fill="#333"/>
</svg>
